<svg width="128" height="128" viewBox="0 0 128 128" fill="none" xmlns="http://www.w3.org/2000/svg">
<circle cx="64" cy="64" r="64" fill="#00AAC1"/>
<path d="M109.491 85.2866V96.4384H87.2923C81.7515 96.4384 77.6134 95.246 74.8781 92.8614C72.2129 90.4767 70.8803 86.7945 70.8803 81.8148V44.2564C70.8803 39.2767 72.2129 35.5945 74.8781 33.2099C77.6134 30.8252 81.7515 29.6329 87.2923 29.6329H109.491V40.7847H84.6622C83.8205 40.7847 83.3997 41.2055 83.3997 42.0471V84.0241C83.3997 84.8658 83.8205 85.2866 84.6622 85.2866H109.491Z" fill="white"/>
<path d="M31.5967 57.3019H44.3266C49.9375 57.3019 54.2159 58.6345 57.1616 61.2997C60.1074 63.8948 61.5803 67.6822 61.5803 72.6619V81.4992C61.5803 86.549 60.1074 90.4066 57.1616 93.0718C54.286 95.737 50.0427 96.9994 44.4318 96.8592L18.972 96.4384V85.7074H47.5879C48.4997 85.7074 48.9556 85.2164 48.9556 84.2345V69.9266C48.9556 68.9447 48.4997 68.4537 47.5879 68.4537H34.7529C29.1419 68.4537 24.8635 67.1562 21.9178 64.5611C19.0422 61.966 17.6044 58.1436 17.6044 53.0937V44.6773C17.6044 39.6975 19.0772 35.84 22.023 33.1047C24.9688 30.3693 29.2471 29.0718 34.8581 29.212L59.3709 29.6329V40.3638H31.5967C30.6849 40.3638 30.229 40.8548 30.229 41.8367V55.829C30.229 56.811 30.6849 57.3019 31.5967 57.3019Z" fill="white"/>
</svg>
