<svg width="251" height="41" viewBox="0 0 251 41" fill="none" xmlns="http://www.w3.org/2000/svg">
<path d="M3.6221 20.062H14.9506C17.1306 20.062 18.7851 20.4903 19.9141 21.3467C21.082 22.1642 21.6659 23.6046 21.6659 25.6679V34.0766C21.6659 36.2567 21.1404 37.8139 20.0893 38.7482C19.0382 39.6825 17.4226 40.1302 15.2425 40.0912L0.352029 39.9161V37.5803H18.1039C18.571 37.5803 18.8046 37.3467 18.8046 36.8796V23.2153C18.8046 22.7482 18.571 22.5146 18.1039 22.5146H6.48342C4.30337 22.5146 2.6878 22.1448 1.6367 21.4051C0.585606 20.6654 0.0600586 19.2056 0.0600586 17.0255V8.85036C0.0600586 6.7871 0.624535 5.22993 1.75349 4.17883C2.92137 3.12773 4.59534 2.62165 6.77539 2.66058L20.79 2.83576V5.17153H3.6221C3.15495 5.17153 2.92137 5.40511 2.92137 5.87226V19.3613C2.92137 19.8285 3.15495 20.062 3.6221 20.062Z" fill="#212121"/>
<path d="M36.8963 40.2664H32.3999C30.2588 40.2664 28.6822 39.8577 27.67 39.0401C26.6968 38.2226 26.2101 36.7433 26.2101 34.6022V29.3467C26.2101 27.1277 26.7162 25.6095 27.7284 24.792C28.7406 23.9745 30.3756 23.5657 32.6335 23.5657H41.9182V26.427H30.4729C30.1615 26.427 30.0058 26.6022 30.0058 26.9526V36.7044C30.0058 37.0158 30.1615 37.1715 30.4729 37.1715H41.3926V14.9234C41.3926 14.573 41.2369 14.3978 40.9255 14.3978H27.7284V11.3029H38.7649C41.0617 11.264 42.7162 11.6727 43.7284 12.5292C44.7406 13.3467 45.2466 14.9039 45.2466 17.2007V39.9161H41.9182L41.3926 37.1715L41.8014 35.1861C41.8014 36.9769 41.4316 38.281 40.6919 39.0985C39.9522 39.8771 38.687 40.2664 36.8963 40.2664Z" fill="#212121"/>
<path d="M56.5856 39.9161H51.9725V0.5H56.5856V39.9161Z" fill="#212121"/>
<path d="M79.0678 34.3686C78.7564 35.8479 78.3865 37.0353 77.9583 37.9307C77.5301 38.7871 76.9072 39.41 76.0897 39.7993C75.2722 40.1496 74.0848 40.2859 72.5277 40.208L66.8634 39.9161L60.5569 11.3029H65.5788L70.951 36.2372H73.6955C73.8902 36.2372 74.0264 36.1983 74.1043 36.1204C74.1822 36.0426 74.2406 35.8869 74.2795 35.6533L79.4766 11.3029H84.3233L79.0678 34.3686Z" fill="#212121"/>
<path d="M96.0044 40.3832H93.0847C90.7489 40.3832 89.036 39.9161 87.946 38.9818C86.856 38.0085 86.311 36.354 86.311 34.0182V29.8139C86.311 27.2835 86.8754 25.5316 88.0044 24.5584C89.1333 23.5852 91.0409 23.0985 93.727 23.0985H101.669V27.3029H92.6175C92.1893 27.3029 91.9752 27.4976 91.9752 27.8869V35.0693C91.9752 35.4976 92.1893 35.7117 92.6175 35.7117H100.968V16.6752C100.968 16.2859 100.754 16.0912 100.326 16.0912H88.0628V11.2445H99.1577C101.883 11.2056 103.829 11.7117 104.997 12.7628C106.204 13.8139 106.807 15.6436 106.807 18.2518V39.9161H101.61L100.968 35.7117L101.318 34.6022C101.318 36.4708 100.91 37.9112 100.092 38.9234C99.2745 39.8966 97.9119 40.3832 96.0044 40.3832Z" fill="#212121"/>
<path d="M126.882 0.5H133.539V39.9161H127.583L126.882 35.0693L127.174 34.3102C127.174 36.2567 126.746 37.7749 125.889 38.865C125.033 39.9161 123.612 40.4416 121.627 40.4416H118.999C116.585 40.4416 114.795 39.9355 113.627 38.9234C112.498 37.8723 111.933 36.1399 111.933 33.7263V18.2518C111.933 15.5657 112.537 13.7165 113.743 12.7044C114.95 11.6533 116.975 11.1277 119.816 11.1277L126.882 11.1861V0.5ZM126.882 34.3686V15.7409L127.583 16.5L119.174 16.4416C118.707 16.4416 118.473 16.6752 118.473 17.1423V34.3686C118.473 34.8358 118.707 35.0693 119.174 35.0693H126.181C126.649 35.0693 126.882 34.8358 126.882 34.3686Z" fill="#212121"/>
<path d="M153.032 17.7263H148.127C147.582 17.7263 147.31 17.9988 147.31 18.5438V32.6752C147.31 33.2202 147.582 33.4927 148.127 33.4927H153.032C153.577 33.4927 153.85 33.2202 153.85 32.6752V18.5438C153.85 17.9988 153.577 17.7263 153.032 17.7263ZM138.959 31.7409V19.4781C138.959 16.4027 139.738 14.1837 141.295 12.8212C142.852 11.4197 145.383 10.719 148.886 10.719H152.273C155.777 10.719 158.307 11.4197 159.864 12.8212C161.422 14.1837 162.2 16.4027 162.2 19.4781V31.7409C162.2 34.8163 161.422 37.0547 159.864 38.4562C158.307 39.8187 155.777 40.5 152.273 40.5H148.886C145.383 40.5 142.852 39.8187 141.295 38.4562C139.738 37.0547 138.959 34.8163 138.959 31.7409Z" fill="#212121"/>
<path d="M181.21 10.719H182.67V18.0182H176.363C175.818 18.0182 175.545 18.2908 175.545 18.8358L175.662 39.9161H167.37L167.253 11.3029H174.786L175.545 17.4343H175.253C175.253 15.371 175.721 13.736 176.655 12.5292C177.628 11.3224 179.146 10.719 181.21 10.719Z" fill="#212121"/>
<path d="M206.357 35.5949V39.9161H193.451C190.882 39.9161 188.994 39.41 187.787 38.3978C186.58 37.3467 185.977 35.6338 185.977 33.2591V9.4927C185.977 7.07907 186.58 5.36618 187.787 4.35401C188.994 3.34185 190.882 2.83576 193.451 2.83576H206.357V7.15693H191.466C191.077 7.15693 190.882 7.33211 190.882 7.68248V35.0693C190.882 35.4197 191.077 35.5949 191.466 35.5949H206.357Z" fill="#212121"/>
<path d="M219.008 40.3832H216.089C213.753 40.3832 212.04 39.9161 210.95 38.9818C209.86 38.0085 209.315 36.354 209.315 34.0182V29.8139C209.315 27.2835 209.88 25.5316 211.008 24.5584C212.137 23.5852 214.045 23.0985 216.731 23.0985H224.673V27.3029H215.622C215.193 27.3029 214.979 27.4976 214.979 27.8869V35.0693C214.979 35.4976 215.193 35.7117 215.622 35.7117H223.972V16.6752C223.972 16.2859 223.758 16.0912 223.33 16.0912H211.067V11.2445H222.162C224.887 11.2056 226.833 11.7117 228.001 12.7628C229.208 13.8139 229.811 15.6436 229.811 18.2518V39.9161H224.614L223.972 35.7117L224.322 34.6022C224.322 36.4708 223.914 37.9112 223.096 38.9234C222.279 39.8966 220.916 40.3832 219.008 40.3832Z" fill="#212121"/>
<path d="M249.127 10.719H250.587V18.0182H244.28C243.735 18.0182 243.463 18.2908 243.463 18.8358L243.58 39.9161H235.288L235.171 11.3029H242.704L243.463 17.4343H243.171C243.171 15.371 243.638 13.736 244.572 12.5292C245.546 11.3224 247.064 10.719 249.127 10.719Z" fill="#212121"/>
</svg>
